# xmcd
#
# Track frame offsets:
#	150
#	28032
#	49597
#	63390
#	84870
#	103425
#	123215
#	143720
#	160777
#	177992
#	205865
#	221600
#	244880
#	268370
#	289112
#	305167
#	317287
#
# Disc length: 4453 seconds
#
# Revision: 1
# Processed by: cddbd v1.5.2PL0 Copyright (c) Steve Scherf et al.
# Submitted via: audiograbber 1.83.01
#
DISCID=f9116311
DTITLE=Mashmakhan - Mashmakhan - The Family
DYEAR=1999
DGENRE=Oldies
TTITLE0=Days When We Are Free
TTITLE1=I Know I've Been Wrong
TTITLE2=As The Years Go By
TTITLE3=Shades Of Loneliness
TTITLE4=Afraid Of Loving You
TTITLE5=Gladwin
TTITLE6=If I Tried
TTITLE7=Happy You Should Be
TTITLE8=Nature's Love Song
TTITLE9=Letter From Zambia
TTITLE10=Children Of The Sun
TTITLE11=The Family
TTITLE12=The Prince
TTITLE13=Come Again
TTITLE14=Children Laughing
TTITLE15=Couldn't Find The Sun
TTITLE16=Start All Over
EXTD=
EXTT0=
EXTT1=
EXTT2=
EXTT3=
EXTT4=
EXTT5=
EXTT6=
EXTT7=
EXTT8=
EXTT9=
EXTT10=
EXTT11=
EXTT12=
EXTT13=
EXTT14=
EXTT15=
EXTT16=
PLAYORDER=
